PathFileType	4	(X/Y/Z)	C:\Users\WrightLab\Desktop\Jo\P1.2Trial2.trc
DataRate	CameraRate	NumFrames	NumMarkers	Units	OrigDataRate	OrigDataStartFrame	OrigNumFrames
100.00	100.00	       10	19	mm	100.00	315	       838
Frame#	Time	Headset_Front			Headset_Back			Headset_Left			Headset_Right			Left_Shoulder			Right_Shoulder			Sternum			C7			Left Elbow			Right Elbow			Left Wrist			Right Wrist			Left ASIS			Right ASIS			S2			Left Knee			Right Knee			Left Ankle			Right Ankle			
		X1	Y1	Z1	X2	Y2	Z2	X3	Y3	Z3	X4	Y4	Z4	X5	Y5	Z5	X6	Y6	Z6	X7	Y7	Z7	X8	Y8	Z8	X9	Y9	Z9	X10	Y10	Z10	X11	Y11	Z11	X12	Y12	Z12	X13	Y13	Z13	X14	Y14	Z14	X15	Y15	Z15	X16	Y16	Z16	X17	Y17	Z17	X18	Y18	Z18	X19	Y19	Z19	

315	3.140	-708.41656	1394.16370	1028.44409	-842.11401	1523.20349	1161.03967	-932.10260	1441.23401	1041.65295				-1074.82996	1271.26074	1144.72681	-655.47852	1230.89038	1161.96790	-871.28528	1169.41357	1041.78320	-861.99536	1322.55920	1257.70398	-1167.53882	996.59418	1178.77075	-598.01685	996.96832	1256.73486	-1096.81787	918.03522	967.20184	-578.41833	889.12982	1038.44910	-1062.61255	864.28210	1106.78674	-750.00946	844.21417	1078.93103	-887.85999	933.15588	1360.96985				-789.87982	455.73642	1050.71411				-809.59149	118.91560	1033.66699	
316	3.150	-705.64996	1395.16333	1020.56091	-839.54053	1524.63257	1153.16736	-929.31641	1443.61633	1033.08130				-1072.74036	1272.81909	1135.41736	-653.49548	1233.09399	1153.56946	-868.82910	1171.15552	1033.22559	-860.59058	1324.20898	1249.30151	-1165.30139	998.02893	1168.85107	-596.26703	999.29498	1247.49976	-1094.39148	920.08655	957.21680	-578.61243	888.46960	1029.85840	-1060.99036	864.72882	1096.56726	-745.30823	846.71539	1071.50708	-886.19830	934.85791	1351.52551				-788.73010	456.14688	1044.61340				-808.89673	117.49310	1032.62256	
317	3.160	-703.12946	1395.82129	1013.41760	-837.11261	1526.11560	1145.27258	-926.66309	1445.89490	1024.36218				-1070.84448	1274.26392	1126.31116	-652.00494	1235.08923	1143.18848	-866.52838	1172.76086	1024.82898	-858.94861	1325.72705	1240.86023	-1163.07288	999.22479	1158.86890	-593.28461	1001.35382	1237.55981				-580.83081	888.19305	1020.89716	-1058.34570	866.01892	1086.87646	-744.18408	847.91028	1061.06592	-884.22723	936.38904	1341.74487				-785.76758	456.31195	1039.91406				-807.94440	116.08392	1031.33301	
318	3.170				-834.94635	1527.43494	1137.35120	-924.02997	1447.99084	1015.74060				-1069.02954	1275.58057	1117.35437	-650.23877	1237.40735	1135.30225	-864.43555	1174.35864	1016.51105	-857.44757	1327.03552	1232.62415	-1160.96887	1000.12219	1148.81885	-592.68817	1001.81903	1227.58398	-1089.19482	924.17542	936.76910	-581.95837	888.30017	1012.11182	-1053.71497	867.53925	1074.75281	-741.12030	849.26550	1053.16724	-882.64929	937.97815	1333.24683				-783.74457	456.01804	1035.24744				-807.33478	115.96018	1030.73291	
319	3.180				-833.01324	1528.79883	1129.46082	-921.44830	1449.85071	1007.10474	-698.38416	1397.81641	996.94391	-1067.32471	1276.62366	1108.58655	-648.68634	1239.33777	1127.30750	-862.34125	1175.78003	1008.28876	-855.71783	1328.37476	1224.41309	-1159.03333	1000.77539	1138.65662	-590.23389	1003.46454	1218.74927	-1086.37476	926.08905	926.38177	-581.92236	889.67841	1002.86127	-1051.86975	869.67566	1065.80432	-738.21881	851.01654	1043.08081	-880.44586	939.17810	1323.42200				-780.87512	456.05133	1030.54065				-806.32294	115.98690	1029.76807	
320	3.190				-831.34845	1530.07153	1121.60461	-919.26538	1451.52490	998.59515	-696.28180	1398.82727	989.66901	-1065.76611	1277.53662	1100.05005	-647.18152	1240.53125	1119.07654	-860.47394	1177.03003	1000.06921	-854.11853	1329.53662	1216.31433	-1157.07544	1001.20355	1128.51123	-588.34027	1005.69019	1209.71326	-1083.54150	928.18622	916.10486	-583.63013	890.07074	994.10724	-1047.22803	871.00171	1053.90771	-734.86084	852.25531	1036.29175	-878.61938	940.50714	1314.49902	-1090.33020	447.16788	1098.11072	-778.32666	455.75674	1026.21313				-805.59326	116.10612	1029.08594	
321	3.200				-829.48413	1531.19800	1113.61230	-917.08875	1452.93201	990.10602	-694.22491	1399.96387	981.26672	-1064.18762	1278.34424	1091.69849	-645.11713	1242.35291	1110.68689	-858.69659	1178.25195	992.07666	-852.57806	1330.51392	1208.39185	-1155.59668	1002.04272	1118.34583	-585.75092	1006.82990	1200.98132	-1080.41003	930.02020	905.72418	-582.74280	891.57977	986.43353	-1046.25757	873.91754	1045.26563	-731.58643	853.36462	1029.04858	-877.22797	942.11066	1306.58789	-1088.11890	446.57718	1073.30066	-775.06903	455.88531	1022.41632				-805.07813	116.02892	1028.58191	
322	3.210				-827.84607	1532.21484	1105.61047	-914.86249	1454.08850	981.68530	-692.45313	1400.57336	976.22058	-1062.44348	1278.80713	1083.59509	-643.64355	1244.20374	1101.60828	-856.81079	1179.11377	984.00854	-851.78827	1331.89844	1200.60291	-1154.36011	1002.93463	1108.24768	-583.59082	1008.54822	1192.99951	-1077.42651	931.57373	895.34314	-581.57605	894.02698	976.39532	-1046.27710	874.72449	1038.35510	-728.00763	854.04602	1021.08350	-874.31366	942.18146	1297.94495	-1085.88843	446.12082	1052.45996	-772.54517	454.25656	1019.55841				-804.65076	113.70834	1031.47156	
323	3.220				-826.29840	1533.46631	1097.50781	-912.95752	1455.07642	973.27209	-690.49646	1401.33228	969.52277	-1060.86511	1279.41125	1075.54004	-641.81262	1245.67358	1093.95569	-855.09991	1180.13684	976.19250	-850.86353	1333.05322	1192.98352	-1152.44897	1003.07330	1098.03967	-581.95508	1010.14825	1184.67224	-1074.56421	933.21521	885.31586	-582.86951	895.01971	967.78583	-1042.45093	875.92230	1028.44165	-724.54987	855.37347	1013.13623	-872.48413	942.93286	1289.53857	-1083.12683	448.41098	1028.02051	-769.10333	454.42404	1016.39081	-1069.48218	234.16408	1354.47913	-804.00623	113.68443	1030.85046	
324	3.230				-824.66522	1534.35107	1089.34607	-910.88300	1455.93262	964.86316	-688.35406	1401.65552	963.61261	-1059.20093	1279.59973	1067.59863	-640.62634	1247.79504	1087.47583	-853.33643	1181.11731	968.40717	-849.46704	1333.76843	1185.33801	-1150.49243	1002.85608	1087.87488	-579.70490	1011.53064	1176.17676	-1071.45398	934.62958	875.32617	-581.57977	896.45801	959.22296	-1041.75281	876.58588	1023.88513	-721.41467	856.93555	1004.32965	-870.62848	943.33148	1281.89441	-1081.29736	452.82687	1008.74176	-766.45197	452.94870	1013.25409	-1070.55164	238.05692	1335.94019	-802.45245	110.94527	1032.42163	
